<svg width="64" height="28" viewBox="0 0 64 28" fill="none" xmlns="http://www.w3.org/2000/svg">
<path d="M9.592 27.848V25.288C14.072 25 16.632 22.248 16.632 18.728C16.632 15.336 14.328 13.768 10.84 13.032L7.96 12.424C6.072 12.008 4.376 11.272 4.376 9.224C4.376 7.24 5.944 5.736 8.568 5.736C11.16 5.736 12.952 7.496 13.112 9.96H16.376C16.12 6.088 13.336 3.528 9.592 3.112V0.455999H7.352V3.112C3.64 3.56 1.08 6.12 1.08 9.448C1.08 13.32 3.864 14.664 6.776 15.272L9.656 15.912C11.96 16.424 13.176 17.32 13.176 19.144C13.176 21.352 11.128 22.632 8.536 22.632C5.4 22.632 3.768 20.936 3.608 18.28H0.344C0.568 22.12 3.096 24.808 7.352 25.256V27.848H9.592ZM26.2195 25V3.368H18.7635V6.184H22.9555V25H26.2195ZM44.398 22.12H35.278L39.63 17.192C43.182 13.416 44.11 11.688 44.11 9.224C44.11 5.672 41.166 3.048 37.134 3.048C32.846 3.048 29.838 5.928 29.838 9.928H33.006C33.006 7.528 34.606 5.96 37.006 5.96C39.214 5.96 40.718 7.464 40.718 9.608C40.718 11.56 39.726 13.064 37.166 15.848L30.414 23.144V25H44.398V22.12ZM63.1268 18.92C63.1268 16.296 61.3668 14.568 59.0948 13.736C60.8868 12.936 62.2948 11.24 62.2948 9.032C62.2948 5.512 59.3188 3.048 55.2228 3.048C51.0628 3.048 48.1188 5.512 48.1188 9.032C48.1188 11.24 49.4948 12.936 51.3188 13.736C49.0468 14.568 47.2548 16.296 47.2548 18.92C47.2548 22.696 50.4868 25.288 55.2228 25.288C59.9268 25.288 63.1268 22.696 63.1268 18.92ZM51.4468 9.128C51.4468 6.984 52.9828 5.64 55.2228 5.64C57.4308 5.64 58.9668 6.984 58.9668 9.128C58.9668 11.24 57.4308 12.52 55.2228 12.52C52.9828 12.52 51.4468 11.24 51.4468 9.128ZM50.6468 18.856C50.6468 16.52 52.5028 15.112 55.2228 15.112C57.9108 15.112 59.7988 16.52 59.7988 18.856C59.7988 21.256 57.9108 22.696 55.2228 22.696C52.5028 22.696 50.6468 21.256 50.6468 18.856Z" fill="#252525"/>
</svg>
