<?xml version="1.0" standalone="no"?>
<!DOCTYPE svg PUBLIC "-//W3C//DTD SVG 20010904//EN"
 "http://www.w3.org/TR/2001/REC-SVG-20010904/DTD/svg10.dtd">
<svg version="1.0" xmlns="http://www.w3.org/2000/svg"
 width="1662.000000pt" height="1662.000000pt" viewBox="0 0 1662.000000 1662.000000"
 preserveAspectRatio="xMidYMid meet">
<metadata>
Created by potrace 1.14, written by Peter Selinger 2001-2017
</metadata>
<g transform="translate(0.000000,1662.000000) scale(0.100000,-0.100000)"
fill="#000000" stroke="none">
<path d="M16110 12471 c-41 -16 -82 -31 -90 -34 -8 -4 -82 -31 -165 -62 -82
-30 -157 -58 -165 -62 -8 -3 -19 -7 -25 -9 -15 -3 -147 -53 -170 -64 -11 -5
-90 -34 -175 -66 -85 -31 -166 -61 -180 -67 -14 -5 -34 -12 -44 -14 -11 -2
-24 -7 -30 -12 -6 -5 -42 -19 -81 -31 -38 -12 -75 -26 -81 -31 -6 -5 -19 -10
-30 -12 -10 -2 -28 -8 -39 -12 -87 -35 -165 -62 -165 -57 0 4 -4 2 -8 -3 -4
-6 -38 -21 -77 -34 -38 -13 -75 -28 -81 -32 -6 -5 -19 -10 -30 -12 -10 -2 -32
-10 -49 -16 -16 -7 -34 -14 -40 -15 -5 -2 -19 -7 -30 -11 -11 -4 -47 -18 -80
-30 -33 -13 -103 -39 -155 -58 -142 -54 -155 -58 -160 -59 -3 0 -27 -9 -55
-20 -27 -11 -122 -47 -210 -80 -243 -91 -337 -126 -370 -139 -16 -7 -34 -13
-40 -15 -14 -3 -225 -82 -250 -93 -17 -8 -184 -70 -665 -248 -52 -19 -104 -39
-115 -43 -11 -5 -90 -35 -175 -66 -85 -31 -166 -61 -180 -67 -14 -6 -27 -11
-30 -11 -10 -3 -105 -38 -125 -47 -11 -5 -58 -22 -105 -39 -47 -17 -94 -34
-105 -39 -23 -11 -345 -131 -360 -135 -5 -2 -23 -9 -40 -15 -16 -7 -34 -14
-40 -15 -5 -2 -21 -8 -35 -13 -14 -6 -77 -29 -140 -52 -63 -23 -124 -46 -135
-51 -11 -6 -56 -23 -100 -39 -166 -59 -231 -83 -250 -92 -11 -5 -58 -22 -105
-39 -47 -17 -92 -33 -100 -37 -8 -3 -17 -7 -20 -8 -3 -1 -14 -5 -25 -9 -11 -4
-45 -17 -75 -28 -30 -11 -66 -25 -80 -31 -14 -5 -29 -12 -35 -13 -14 -4 -104
-37 -200 -74 -44 -17 -84 -33 -90 -34 -5 -2 -17 -6 -25 -9 -12 -5 -442 -165
-530 -197 -14 -5 -38 -15 -55 -21 -16 -7 -34 -13 -40 -15 -5 -1 -39 -14 -74
-29 -35 -15 -73 -27 -83 -28 -10 -1 -18 -5 -18 -9 0 -4 -5 -8 -12 -8 -6 0 -71
-23 -144 -51 -74 -28 -139 -52 -146 -53 -7 -2 -26 -9 -43 -16 -35 -16 -32 -14
-70 -25 -16 -4 -32 -11 -35 -14 -3 -3 -39 -17 -80 -31 -41 -13 -84 -30 -95
-36 -11 -6 -33 -15 -50 -19 -16 -3 -49 -15 -73 -27 -25 -11 -53 -21 -63 -23
-10 -2 -33 -10 -51 -18 -30 -13 -156 -60 -168 -63 -3 0 -18 -6 -35 -13 -16 -7
-79 -31 -140 -53 -60 -22 -116 -45 -122 -50 -7 -6 -13 -8 -13 -5 0 4 -20 -2
-45 -13 -25 -11 -46 -19 -48 -19 -1 0 -13 -4 -27 -9 -14 -5 -124 -46 -245 -91
-121 -45 -229 -86 -240 -90 -11 -5 -40 -16 -65 -25 -25 -8 -81 -29 -125 -46
-44 -17 -87 -33 -95 -35 -8 -2 -123 -45 -255 -96 -132 -50 -244 -92 -250 -93
-5 -2 -17 -6 -25 -9 -20 -9 -134 -51 -140 -52 -7 -2 -38 -15 -87 -36 -24 -10
-43 -16 -43 -14 0 3 -25 -6 -56 -20 -31 -14 -60 -22 -65 -19 -5 3 -9 1 -9 -4
0 -5 -15 -14 -32 -20 -18 -5 -64 -22 -102 -35 -43 -16 -75 -22 -85 -17 -30 15
-154 62 -171 66 -3 0 -12 4 -20 7 -32 14 -206 78 -217 81 -7 1 -16 5 -19 9 -4
4 -13 7 -21 7 -7 0 -32 8 -56 19 -41 18 -312 120 -332 124 -20 5 -160 58 -177
68 -10 5 -24 9 -31 9 -7 0 -32 9 -55 20 -22 11 -46 20 -51 20 -6 0 -25 7 -43
14 -18 8 -78 31 -133 51 -55 19 -109 40 -120 44 -11 5 -47 19 -80 31 -33 12
-68 26 -77 31 -10 5 -25 9 -33 9 -8 0 -23 4 -33 9 -37 19 -69 32 -82 35 -8 2
-28 8 -43 14 -16 7 -30 12 -32 12 -2 0 -16 5 -32 12 -15 6 -30 12 -33 13 -3 1
-14 5 -25 9 -114 44 -202 76 -207 76 -3 0 -23 8 -44 17 -22 9 -43 17 -49 19
-9 2 -84 29 -255 95 -41 15 -138 51 -215 79 -77 28 -169 63 -205 77 -36 14
-69 26 -75 28 -5 1 -23 7 -40 14 -16 6 -43 16 -60 22 -16 6 -39 15 -50 19 -11
5 -49 19 -85 31 -36 12 -69 26 -75 30 -5 4 -26 11 -45 17 -19 5 -163 58 -320
117 -157 59 -305 114 -330 122 -25 8 -59 21 -77 29 -17 8 -33 14 -36 14 -3 0
-18 5 -34 12 -15 6 -31 12 -35 13 -5 2 -9 3 -10 5 -2 1 -10 3 -18 5 -16 4
-192 70 -225 84 -34 15 -109 43 -125 46 -8 2 -37 13 -63 24 -27 12 -52 21 -57
21 -4 0 -25 8 -46 17 -22 9 -43 18 -49 19 -5 1 -39 13 -75 27 -36 13 -135 50
-220 81 -85 31 -162 61 -170 65 -9 5 -30 12 -47 15 -29 7 -32 5 -43 -31 -6
-21 -15 -47 -19 -58 -14 -34 -38 -97 -65 -168 l-25 -68 22 -9 c29 -12 319
-121 332 -124 6 -2 17 -6 25 -9 30 -13 205 -78 215 -80 6 -2 15 -5 20 -8 17
-11 120 -43 128 -41 4 1 7 -3 7 -8 0 -5 3 -9 8 -8 4 0 14 -2 22 -5 14 -5 94
-35 308 -113 53 -19 107 -39 120 -45 57 -24 70 -28 107 -40 22 -6 45 -15 51
-20 6 -5 19 -10 30 -12 10 -2 26 -7 34 -10 28 -12 135 -51 145 -53 6 -2 82
-30 170 -64 88 -34 167 -63 176 -65 9 -2 25 -8 35 -14 11 -6 52 -22 93 -36
109 -38 480 -175 556 -205 11 -5 43 -16 70 -26 28 -9 54 -21 60 -26 5 -4 16
-8 24 -8 12 0 97 -30 166 -60 25 -10 108 -38 120 -40 2 -1 29 -12 60 -25 30
-14 55 -22 55 -19 0 4 6 2 12 -3 7 -6 40 -20 73 -31 34 -11 72 -25 85 -31 14
-6 70 -26 125 -46 55 -20 109 -40 120 -45 11 -4 45 -17 75 -28 30 -11 118 -44
195 -72 77 -28 149 -55 160 -60 35 -14 107 -41 194 -72 46 -16 95 -34 110 -40
14 -6 29 -12 34 -13 4 -2 9 -4 12 -5 3 -1 8 -3 13 -5 4 -1 14 -5 22 -8 8 -3
114 -43 235 -87 121 -45 228 -85 237 -90 10 -6 25 -10 33 -10 8 0 15 -4 15
-10 0 -5 -4 -10 -10 -10 -7 0 -305 -107 -380 -137 -16 -6 -23 -9 -245 -92 -77
-29 -169 -63 -205 -77 -36 -13 -90 -34 -120 -45 -30 -11 -64 -24 -75 -29 -17
-7 -98 -37 -390 -145 -33 -12 -112 -41 -175 -65 -63 -23 -124 -46 -135 -51
-11 -4 -191 -72 -400 -149 -209 -78 -389 -145 -400 -150 -11 -5 -47 -18 -80
-30 -33 -11 -69 -25 -80 -30 -11 -5 -38 -16 -60 -23 -141 -49 -171 -60 -180
-68 -5 -5 -15 -9 -23 -9 -8 0 -28 -6 -45 -14 -30 -13 -126 -50 -137 -52 -3 0
-14 -4 -25 -9 -71 -28 -214 -81 -360 -135 -93 -34 -179 -65 -190 -70 -18 -8
-53 -21 -65 -25 -3 -1 -12 -5 -20 -8 -8 -3 -150 -56 -315 -117 -165 -61 -309
-115 -320 -120 -11 -4 -47 -18 -80 -30 -33 -12 -69 -26 -80 -30 -11 -4 -83
-31 -160 -60 -77 -29 -143 -54 -147 -56 -4 -3 -3 -15 2 -27 4 -12 23 -60 40
-107 18 -47 36 -94 40 -105 5 -11 14 -37 20 -58 14 -44 17 -44 125 -2 94 36
709 266 720 269 6 2 21 7 35 13 14 6 95 36 180 67 85 32 182 68 215 81 103 40
359 136 375 140 18 5 387 142 415 155 11 5 94 36 185 70 91 33 172 63 180 67
8 3 20 7 25 9 6 1 53 19 105 39 52 20 100 38 105 39 6 2 17 6 25 9 64 27 257
97 268 97 6 0 12 4 12 10 0 5 3 9 8 8 4 -1 32 6 62 17 30 11 57 20 60 20 3 1
16 7 30 13 14 6 106 41 205 78 99 36 209 77 245 91 35 14 69 26 75 28 5 1 21
6 35 12 14 6 70 27 125 47 55 20 109 41 120 46 34 15 240 90 248 90 4 0 26 8
50 19 44 20 315 122 332 125 6 2 27 10 49 19 21 9 42 17 47 17 5 0 17 4 27 9
9 5 80 33 157 61 77 28 147 54 155 57 8 4 17 7 20 7 5 2 126 48 175 67 17 7
39 14 49 16 11 2 24 7 30 12 32 25 55 21 181 -29 19 -8 81 -30 188 -69 61 -22
198 -74 277 -104 30 -12 60 -23 65 -24 11 -2 134 -48 225 -83 30 -12 87 -32
125 -46 39 -14 79 -29 90 -34 11 -4 36 -13 55 -20 19 -7 44 -16 55 -20 11 -4
47 -18 80 -30 70 -26 91 -34 125 -48 14 -5 72 -27 130 -48 58 -20 116 -42 130
-47 14 -6 27 -11 30 -12 3 -1 12 -4 20 -8 17 -6 345 -127 430 -158 30 -12 63
-25 72 -30 10 -5 25 -9 33 -9 8 0 23 -5 33 -10 9 -6 91 -37 182 -70 91 -34
174 -65 185 -69 11 -5 36 -14 55 -21 19 -7 44 -16 55 -20 30 -12 59 -23 65
-24 6 -1 41 -15 125 -47 33 -13 62 -24 65 -25 3 0 14 -4 25 -8 11 -4 43 -16
70 -26 137 -51 422 -156 520 -193 17 -7 32 -12 35 -12 3 -1 22 -9 44 -18 21
-9 41 -17 43 -17 6 0 378 -137 408 -150 11 -5 72 -28 135 -51 133 -48 426
-157 550 -204 47 -18 105 -40 130 -48 25 -9 70 -25 100 -37 30 -12 123 -46
205 -76 83 -30 157 -57 165 -61 8 -3 20 -7 25 -9 30 -8 203 -75 217 -84 10 -5
26 -10 36 -10 9 0 26 -6 37 -14 11 -7 31 -15 45 -18 21 -5 135 -47 505 -187
28 -10 120 -44 205 -76 236 -86 263 -96 285 -105 11 -5 94 -36 185 -70 91 -33
173 -65 182 -70 10 -6 24 -10 32 -10 7 0 31 -8 52 -17 22 -9 41 -17 44 -18 3
-1 12 -4 20 -8 8 -3 121 -44 250 -92 129 -47 243 -90 252 -95 10 -6 24 -10 31
-10 7 0 32 -9 55 -20 22 -11 49 -22 59 -23 10 -2 32 -10 48 -16 57 -24 190
-72 209 -76 10 -2 23 -8 30 -13 6 -4 29 -14 51 -21 22 -7 49 -16 60 -21 26
-11 59 -23 65 -24 3 -1 19 -6 35 -13 17 -6 91 -34 165 -62 74 -27 221 -82 325
-121 105 -39 195 -73 200 -74 6 -2 19 -6 30 -11 90 -34 165 -62 325 -120 102
-37 199 -73 215 -80 17 -7 86 -33 155 -59 69 -25 152 -55 185 -68 33 -12 62
-22 65 -23 5 0 60 -21 300 -113 111 -42 225 -82 236 -82 9 0 45 83 50 116 1 6
9 27 17 45 8 19 26 64 40 100 l24 67 -34 16 c-18 9 -38 16 -44 16 -5 0 -29 9
-51 20 -23 11 -46 20 -51 20 -8 0 -461 167 -557 205 -19 8 -98 37 -175 65 -77
28 -149 55 -160 60 -19 8 -212 80 -420 155 -49 18 -103 39 -120 46 -16 6 -36
13 -42 15 -7 1 -66 22 -130 47 -65 25 -127 48 -138 52 -11 5 -28 10 -38 11
-10 2 -30 12 -44 21 -15 10 -28 17 -30 16 -2 -2 -5 -2 -8 -2 -3 1 -9 3 -15 4
-5 1 -12 4 -15 5 -3 1 -8 3 -12 4 -5 1 -25 10 -47 19 -21 9 -42 17 -46 17 -6
0 -47 15 -135 50 -11 4 -46 17 -77 29 -32 12 -84 30 -115 42 -56 20 -79 29
-125 48 -13 5 -51 19 -86 30 -34 12 -70 25 -80 30 -9 5 -46 20 -82 32 -36 12
-76 27 -90 32 -14 6 -27 11 -30 12 -3 1 -12 4 -20 7 -20 8 -249 93 -425 158
-77 28 -156 57 -175 65 -188 73 -241 95 -215 89 17 -3 39 -8 50 -10 11 -2 43
-7 70 -11 63 -8 2719 -9 2800 0 78 8 188 32 245 52 25 9 50 18 55 19 60 15
266 137 318 190 14 14 29 26 31 26 6 0 36 30 91 91 43 48 115 146 115 158 0 5
4 11 8 13 18 7 114 228 128 293 1 6 5 26 9 45 4 19 11 58 16 85 11 55 16 2763
6 2853 -7 58 -38 184 -61 248 -30 87 -119 253 -161 301 -107 123 -140 157
-195 200 -36 29 -81 62 -100 75 -45 31 -200 109 -200 101 0 -3 -6 -1 -12 5
-12 9 -86 34 -113 38 -5 0 -17 4 -25 7 -14 6 -29 9 -130 24 -57 9 -2758 10
-2825 1 -86 -12 -170 -31 -176 -41 -4 -6 -9 -5 -13 1 -3 5 37 25 92 45 53 20
169 63 257 96 88 34 163 61 166 61 4 0 24 8 45 17 22 9 44 18 49 19 6 2 82 30
170 64 88 34 165 63 170 64 10 3 25 8 63 23 9 3 19 7 22 8 3 1 12 4 20 8 8 3
59 22 112 41 53 20 107 40 120 45 67 28 458 171 467 171 6 0 11 5 11 12 0 6 3
9 6 5 3 -3 36 6 72 20 37 14 103 39 147 54 44 16 89 33 100 38 11 5 43 17 70
26 28 10 64 23 80 30 74 31 251 95 263 95 6 0 12 4 12 8 0 5 6 9 13 9 6 0 57
17 112 38 55 21 129 49 165 62 36 13 72 26 80 30 8 3 20 7 25 9 15 3 417 154
440 165 11 5 58 22 105 39 47 17 94 34 105 39 21 9 56 23 65 26 19 4 90 30
115 40 17 7 59 24 95 38 36 14 64 28 63 31 -14 54 -121 325 -128 325 -5 0 -44
-13 -85 -28z m-3710 -1775 c0 -2 -7 -7 -16 -10 -8 -3 -12 -2 -9 4 6 10 25 14
25 6z m-50 -20 c0 -2 -7 -7 -16 -10 -8 -3 -12 -2 -9 4 6 10 25 14 25 6z m-74
-31 c-11 -8 -24 -15 -28 -15 -10 0 -157 -88 -174 -104 -7 -6 -24 -20 -40 -31
-47 -33 -142 -132 -201 -208 -102 -133 -198 -364 -219 -532 -5 -33 -8 -683 -8
-1445 0 -1295 1 -1391 18 -1470 10 -47 19 -93 21 -102 9 -44 82 -210 118 -268
119 -191 251 -319 437 -424 54 -31 48 -33 -14 -6 -26 11 -50 20 -54 21 -4 1
-17 5 -30 10 -13 5 -25 9 -28 9 -2 0 -43 15 -92 34 -48 19 -175 67 -282 106
-252 93 -301 111 -325 121 -11 5 -65 25 -120 45 -55 20 -136 50 -180 66 -44
16 -100 37 -125 45 -25 9 -47 19 -50 22 -3 3 -12 7 -20 9 -17 4 -242 84 -280
101 -14 6 -70 27 -125 46 -195 71 -260 96 -277 105 -10 6 -26 10 -36 10 -10 0
-22 4 -28 9 -11 10 -236 91 -253 91 -6 0 -11 4 -11 9 0 5 -12 11 -27 14 -16 3
-41 11 -58 18 -16 7 -32 13 -35 13 -3 1 -18 7 -35 13 -16 7 -129 49 -250 93
-121 44 -227 84 -235 87 -8 3 -17 7 -20 8 -3 1 -12 4 -20 8 -8 3 -37 13 -65
23 -27 9 -54 21 -59 26 -6 4 -20 8 -32 8 -13 0 -25 4 -28 9 -3 5 -17 12 -30
15 -14 3 -38 11 -53 18 -15 6 -32 12 -38 13 -9 2 -128 46 -190 71 -11 4 -22 8
-25 9 -3 1 -14 5 -25 10 -110 42 -145 55 -157 55 -8 0 -19 5 -25 11 -6 6 -17
12 -24 13 -8 2 -21 6 -29 9 -8 3 -42 15 -75 26 -33 12 -69 26 -80 30 -11 5
-78 30 -150 56 -71 25 -143 52 -160 60 -16 7 -59 23 -95 36 -36 12 -76 27 -90
32 -14 6 -29 11 -35 13 -5 1 -71 25 -145 54 -74 28 -155 58 -180 66 -25 9 -58
21 -75 29 -16 7 -49 19 -72 26 -24 7 -43 15 -43 19 0 4 -6 7 -13 7 -12 0 -404
142 -452 163 -11 5 -47 19 -80 30 -33 12 -69 25 -80 30 -11 5 -47 18 -80 30
-33 11 -69 25 -80 29 -11 5 -54 21 -95 36 -41 15 -118 43 -170 63 -52 20 -98
35 -102 34 -5 -1 -8 2 -8 7 0 5 10 12 23 16 12 3 31 10 42 15 11 5 115 43 230
86 116 42 221 82 235 87 14 6 27 11 30 12 12 4 81 30 145 55 11 4 43 16 70 25
28 9 64 23 80 30 25 11 65 25 85 30 3 1 19 7 35 14 17 7 98 37 180 67 83 31
164 62 182 70 17 8 36 14 42 14 6 0 19 4 29 10 9 5 98 39 197 75 99 36 189 70
200 76 12 6 27 11 35 13 8 2 29 8 45 15 17 6 53 20 80 30 28 11 59 23 70 27
11 4 22 8 25 9 3 1 12 5 20 8 31 13 235 89 245 92 6 1 24 7 40 14 17 6 44 16
60 22 17 6 39 15 50 19 86 35 158 60 170 60 8 0 15 4 15 10 0 5 3 9 8 9 4 -1
9 0 12 1 3 1 12 3 20 5 15 4 288 105 565 211 11 4 22 8 25 9 3 1 14 5 25 9 11
4 34 13 50 18 17 6 44 17 60 24 33 13 395 148 460 171 22 8 53 20 70 28 16 7
33 11 37 9 4 -3 8 0 8 5 0 6 3 10 8 9 4 -1 23 4 42 11 19 8 37 15 40 15 8 3
123 46 140 53 8 3 17 7 20 7 3 1 19 6 35 13 17 6 57 21 90 33 33 12 74 29 92
36 17 8 38 14 46 14 9 0 18 4 21 9 3 5 17 12 30 15 14 3 38 11 53 18 15 6 33
12 38 13 14 3 282 104 320 120 25 11 65 25 85 30 10 3 45 17 65 26 11 5 45 18
75 28 57 20 234 87 260 98 8 3 20 7 25 9 14 3 146 53 170 63 11 5 54 22 95 36
41 15 113 42 160 59 136 52 185 70 190 72 3 0 14 4 25 9 56 23 111 44 115 44
3 0 -4 -6 -14 -14z m3149 -270 c17 -4 39 -8 50 -10 88 -14 221 -80 321 -159
113 -90 235 -278 260 -399 2 -10 5 -26 8 -35 18 -63 26 -212 12 -212 -7 0 -8
-3 -1 -8 14 -10 14 -265 0 -274 -7 -5 -7 -8 0 -8 14 0 14 -190 0 -190 -7 0 -6
-3 0 -8 14 -10 14 -1104 0 -1114 -6 -5 -6 -8 0 -8 14 0 14 -263 0 -272 -7 -5
-7 -8 0 -8 14 0 14 -190 0 -190 -6 0 -6 -3 0 -8 14 -10 14 -265 0 -274 -7 -5
-6 -8 1 -8 12 0 12 -157 0 -245 -25 -188 -139 -390 -280 -500 -14 -11 -36 -28
-48 -38 -60 -49 -224 -114 -335 -133 -21 -4 -643 -8 -1383 -8 -1339 -1 -1423
1 -1500 31 -8 3 -21 7 -28 9 -17 3 -148 67 -186 91 -62 38 -206 178 -206 200
0 3 -6 14 -14 22 -16 17 -85 154 -92 180 -2 9 -11 45 -20 81 -16 59 -17 186
-18 1430 0 751 3 1384 7 1407 27 172 105 320 237 451 40 39 79 72 86 72 8 0
14 4 14 8 0 12 155 87 220 106 30 9 78 19 105 22 28 4 51 7 52 8 7 6 2713 -3
2738 -9z"/>
<path d="M12886 9932 c-2 -1 -16 -5 -32 -8 -140 -24 -294 -134 -367 -262 -17
-31 -32 -59 -32 -62 0 -3 -3 -9 -6 -15 -33 -56 -34 -98 -34 -1260 0 -1118 1
-1152 20 -1217 11 -38 23 -68 27 -68 5 0 8 -6 8 -14 0 -7 9 -25 20 -38 10 -14
17 -27 15 -30 -3 -3 26 -36 64 -75 67 -67 174 -133 241 -147 14 -3 43 -9 65
-14 39 -8 2285 -8 2315 0 8 2 21 7 28 11 6 5 12 6 12 2 0 -3 14 1 30 10 17 9
30 13 30 9 0 -17 162 94 188 129 8 10 25 29 38 42 13 13 24 27 24 30 0 3 11
23 24 44 14 21 35 72 47 112 l23 74 -1 1125 c0 1086 -2 1192 -16 1207 -4 3 -7
14 -7 24 0 26 -44 116 -86 173 -46 64 -116 122 -190 160 -121 61 -53 58 -1302
60 -629 1 -1145 0 -1146 -2z m2285 -380 c46 -24 87 -75 96 -121 9 -42 9 -2162
1 -2204 -12 -57 -48 -105 -98 -129 l-45 -23 -1095 0 c-678 -1 -1107 3 -1128 9
-40 12 -109 78 -120 114 -4 15 -7 527 -7 1137 0 1093 0 1110 20 1141 25 39 72
78 108 90 16 5 497 9 1126 9 l1098 0 44 -23z"/>
<path d="M13887 9183 c-3 -2 -13 -5 -23 -7 -11 -2 -39 -10 -64 -17 -25 -7 -49
-13 -55 -14 -25 -1 -186 -87 -240 -128 -64 -48 -152 -137 -182 -184 -9 -15
-21 -30 -24 -33 -4 -3 -23 -36 -42 -75 -30 -60 -43 -95 -75 -195 -3 -8 -6 -26
-8 -40 -2 -14 -6 -36 -9 -48 -8 -30 -7 -162 0 -227 28 -243 179 -481 391 -618
67 -43 214 -112 214 -100 0 3 6 0 13 -6 8 -6 16 -8 19 -6 3 3 16 1 30 -4 36
-14 195 -31 211 -23 4 2 34 5 65 7 150 8 323 78 457 185 147 117 263 299 301
471 3 13 8 35 11 49 9 36 8 267 -1 314 -21 106 -97 287 -139 331 -6 7 -19 23
-27 36 -33 51 -193 199 -216 199 -7 0 -14 3 -16 8 -4 10 -128 75 -128 66 0 -3
-6 -2 -12 4 -12 9 -78 31 -149 49 -27 6 -296 12 -302 6z m278 -373 c22 -7 49
-17 60 -23 11 -6 22 -11 25 -12 32 -2 196 -146 182 -159 -3 -3 0 -6 6 -6 7 0
12 -6 12 -14 0 -8 4 -16 8 -18 5 -1 22 -34 37 -73 48 -120 42 -272 -16 -400
-58 -127 -202 -242 -344 -274 -176 -40 -359 18 -484 155 -51 56 -106 156 -116
209 -2 17 -7 41 -10 55 -5 27 -6 88 -2 135 9 89 45 176 106 252 39 50 136 132
163 137 7 2 29 10 49 19 20 9 49 18 64 21 15 3 30 7 32 10 10 9 187 -2 228
-14z"/>
</g>
</svg>
